<svg id="svg" version="1.1" xmlns="http://www.w3.org/2000/svg" xmlns:xlink="http://www.w3.org/1999/xlink" width="400" height="400" viewBox="0, 0, 400,400"><g id="svgg"><path id="path0" d="M181.222 32.702 C 97.396 42.087,34.000 112.884,34.000 197.111 C 34.000 277.928,92.228 346.845,171.889 360.314 C 175.428 360.912,181.871 361.778,182.788 361.778 L 183.336 361.778 183.279 345.182 L 183.222 328.587 180.444 328.190 C 130.191 321.001,87.881 284.887,73.003 236.480 C 72.457 234.703,72.033 233.230,72.061 233.206 C 72.088 233.182,97.082 254.301,127.603 280.137 C 158.123 305.973,183.148 327.111,183.214 327.111 C 183.280 327.111,183.333 317.186,183.333 305.056 L 183.333 283.000 136.166 243.080 C 110.225 221.123,88.763 202.968,88.474 202.734 L 87.947 202.309 135.625 157.654 L 183.303 113.000 183.318 89.820 C 183.327 77.071,183.258 66.688,183.167 66.746 C 183.075 66.804,157.450 90.800,126.222 120.072 C 91.773 152.363,69.415 173.165,69.370 172.968 C 69.330 172.789,69.511 171.623,69.774 170.377 C 81.477 114.880,126.011 73.521,182.278 65.894 L 183.333 65.751 183.333 49.097 C 183.333 39.938,183.258 32.458,183.167 32.474 C 183.075 32.489,182.200 32.592,181.222 32.702 M215.556 197.132 L 215.556 361.778 216.278 361.764 C 216.675 361.756,218.350 361.572,220.000 361.354 C 221.915 361.101,223.098 361.034,223.272 361.168 C 223.451 361.306,223.654 361.267,223.868 361.053 C 224.047 360.874,224.724 360.658,225.374 360.572 C 232.211 359.671,243.864 356.817,252.332 353.969 C 303.162 336.877,343.038 295.472,358.099 244.146 C 360.131 237.222,362.497 226.710,362.419 224.951 C 362.399 224.489,362.604 223.311,362.875 222.333 C 365.590 212.550,360.311 202.476,350.456 198.634 C 349.955 198.439,350.052 198.362,351.679 197.656 C 361.375 193.446,365.014 184.642,362.785 170.789 C 350.902 96.944,291.670 40.987,216.500 32.592 L 215.556 32.487 215.556 197.132 M251.859 75.580 C 295.475 94.436,325.905 135.527,330.997 182.444 C 331.070 183.117,331.184 184.042,331.251 184.500 L 331.372 185.333 289.797 185.333 L 248.222 185.333 248.222 129.778 C 248.222 89.109,248.289 74.222,248.470 74.222 C 248.606 74.222,250.131 74.833,251.859 75.580 M330.444 216.061 C 330.444 216.890,329.376 222.748,328.543 226.491 C 320.029 264.722,294.156 297.768,258.889 315.455 C 255.294 317.258,248.746 320.222,248.359 320.222 C 248.284 320.222,248.222 296.672,248.222 267.889 L 248.222 215.556 289.333 215.556 L 330.444 215.556 330.444 216.061 " stroke="none" fill="#fbfbfb" fill-rule="evenodd"></path><path id="path1" d="M190.222 0.138 C 161.755 2.014,137.669 8.241,113.444 19.985 C 28.584 61.125,-15.741 156.472,7.331 248.242 C 27.304 327.686,94.328 386.958,175.778 397.208 C 191.251 399.155,210.083 399.155,225.556 397.208 C 312.709 386.241,382.253 319.735,397.221 233.043 C 400.961 211.381,400.961 187.286,397.221 165.624 C 380.733 70.127,298.863 0.639,202.222 0.116 C 196.294 0.084,190.894 0.094,190.222 0.138 M183.333 49.097 L 183.333 65.751 182.278 65.894 C 126.011 73.521,81.477 114.880,69.774 170.377 C 69.511 171.623,69.330 172.789,69.370 172.968 C 69.415 173.165,91.773 152.363,126.222 120.072 C 157.450 90.800,183.075 66.804,183.167 66.746 C 183.258 66.688,183.327 77.071,183.318 89.820 L 183.303 113.000 135.625 157.654 L 87.947 202.309 88.474 202.734 C 88.763 202.968,110.225 221.123,136.166 243.080 L 183.333 283.000 183.333 305.056 C 183.333 317.186,183.280 327.111,183.214 327.111 C 183.148 327.111,158.123 305.973,127.603 280.137 C 97.082 254.301,72.088 233.182,72.061 233.206 C 72.033 233.230,72.457 234.703,73.003 236.480 C 87.881 284.887,130.191 321.001,180.444 328.190 L 183.222 328.587 183.279 345.182 L 183.336 361.778 182.788 361.778 C 181.871 361.778,175.428 360.912,171.889 360.314 C 92.228 346.845,34.000 277.928,34.000 197.111 C 34.000 112.884,97.396 42.087,181.222 32.702 C 182.200 32.592,183.075 32.489,183.167 32.474 C 183.258 32.458,183.333 39.938,183.333 49.097 M221.591 33.237 C 293.328 42.563,351.228 98.970,362.785 170.789 C 365.014 184.642,361.375 193.446,351.679 197.656 C 350.052 198.362,349.955 198.439,350.456 198.634 C 360.311 202.476,365.590 212.550,362.875 222.333 C 362.604 223.311,362.399 224.489,362.419 224.951 C 362.497 226.710,360.131 237.222,358.099 244.146 C 343.038 295.472,303.162 336.877,252.332 353.969 C 243.864 356.817,232.211 359.671,225.374 360.572 C 224.724 360.658,224.047 360.874,223.868 361.053 C 223.654 361.267,223.451 361.306,223.272 361.168 C 223.098 361.034,221.915 361.101,220.000 361.354 C 218.350 361.572,216.675 361.756,216.278 361.764 L 215.556 361.778 215.556 197.132 L 215.556 32.487 216.500 32.592 C 217.019 32.650,219.310 32.940,221.591 33.237 M248.222 129.778 L 248.222 185.333 289.797 185.333 L 331.372 185.333 331.251 184.500 C 331.184 184.042,331.070 183.117,330.997 182.444 C 326.208 138.317,298.963 99.115,259.111 79.012 C 255.074 76.976,248.957 74.222,248.470 74.222 C 248.289 74.222,248.222 89.109,248.222 129.778 M248.222 267.889 C 248.222 296.672,248.284 320.222,248.359 320.222 C 248.746 320.222,255.294 317.258,258.889 315.455 C 294.156 297.768,320.029 264.722,328.543 226.491 C 329.376 222.748,330.444 216.890,330.444 216.061 L 330.444 215.556 289.333 215.556 L 248.222 215.556 248.222 267.889 " stroke="none" fill="#040404" fill-rule="evenodd"></path></g></svg>